<?xml version="1.0" encoding="UTF-8"?>
<svg width="400px" height="400px" viewBox="0 0 400 400" version="1.1" xmlns="http://www.w3.org/2000/svg" xmlns:xlink="http://www.w3.org/1999/xlink">
    <!-- Generator: Sketch 50.2 (55047) - http://www.bohemiancoding.com/sketch -->
    <title>Group 11</title>
    <desc>Created with Sketch.</desc>
    <defs>
        <linearGradient x1="50%" y1="94.3729079%" x2="50%" y2="0.112937232%" id="linearGradient-1">
            <stop stop-color="#224479" offset="0%"></stop>
            <stop stop-color="#003D76" stop-opacity="0" offset="100%"></stop>
        </linearGradient>
        <linearGradient x1="-4.2225771%" y1="-3.398047%" x2="74.5076518%" y2="74.641878%" id="linearGradient-2">
            <stop stop-color="#2C3964" offset="0%"></stop>
            <stop stop-color="#0097FF" offset="100%"></stop>
        </linearGradient>
        <linearGradient x1="24.9600358%" y1="25.75412%" x2="75.2593526%" y2="75.3184656%" id="linearGradient-3">
            <stop stop-color="#0F3050" offset="0%"></stop>
            <stop stop-color="#2587D2" offset="100%"></stop>
        </linearGradient>
        <linearGradient x1="38.3636642%" y1="37.9577882%" x2="86.8871781%" y2="86.6910535%" id="linearGradient-4">
            <stop stop-color="#00599C" stop-opacity="0" offset="0%"></stop>
            <stop stop-color="#00278A" offset="100%"></stop>
        </linearGradient>
    </defs>
    <g id="three" stroke="none" stroke-width="1" fill="none" fill-rule="evenodd">
        <g id="Desktop-Copy" transform="translate(-138.000000, -2249.000000)">
            <g id="Group-11" transform="translate(138.000000, 2226.000000)">
                <path d="M201.528759,346.325932 L157.81826,367.890885 L61.9800062,312.657408 L62.0290344,161.372717 L133.266176,161.931735 L133.266357,161.372717 L341.205315,163.004475 L341.156839,312.58476 L245.282763,367.890885 L201.528759,346.325932 Z" id="Combined-Shape" fill="url(#linearGradient-1)" opacity="0.7"></path>
                <polygon id="Rectangle-Copy-2" fill-opacity="0.5" fill="url(#linearGradient-2)" transform="translate(201.710121, 216.600092) rotate(45.000000) translate(-201.710121, -216.600092) " points="162.641134 177.505775 269.46498 148.793863 240.779107 255.69441 133.955261 284.406322"></polygon>
                <polygon id="Rectangle-Copy" fill-opacity="0.5" fill="url(#linearGradient-2)" transform="translate(201.710121, 184.145731) rotate(45.000000) translate(-201.710121, -184.145731) " points="162.641134 145.051414 269.46498 116.339502 240.779107 223.240048 133.955261 251.951961"></polygon>
                <polygon id="Rectangle" fill="url(#linearGradient-3)" transform="translate(201.710121, 152.502729) rotate(45.000000) translate(-201.710121, -152.502729) " points="162.641134 113.408412 269.46498 84.6965001 240.779107 191.597046 133.955261 220.308959"></polygon>
                <polygon id="Rectangle-Copy-3" fill="url(#linearGradient-4)" style="mix-blend-mode: screen;" transform="translate(201.469837, 200.132628) rotate(45.000000) translate(-201.469837, -200.132628) " points="196.87951 59.3445319 342.774689 205.308266 314.088816 312.208812 207.26497 340.920725 60.1649846 193.751403"></polygon>
            </g>
        </g>
    </g>
</svg>