<?xml version="1.0" encoding="UTF-8"?>
<svg width="83px" height="24px" viewBox="0 0 83 24" version="1.1" xmlns="http://www.w3.org/2000/svg" xmlns:xlink="http://www.w3.org/1999/xlink">
    <!-- Generator: Sketch 50.2 (55047) - http://www.bohemiancoding.com/sketch -->
    <title>logo</title>
    <desc>Created with Sketch.</desc>
    <defs></defs>
    <g id="logo" stroke="none" stroke-width="1" fill="none" fill-rule="evenodd">
        <path d="M11.958409,6 C13.6055298,6 15.0992912,6.673 16.1817703,7.76 L19,4.929 C17.197528,3.119 14.7079257,2 11.958409,2 C6.45837971,2 2,6.478 2,12 C2,17.522 6.45837971,22 11.958409,22 C14.7079257,22 17.197528,20.881 19,19.071 L16.1817703,16.24 C15.0992912,17.327 13.6055298,18 11.958409,18 C9.36324761,18 7.1544725,16.326 6.33190791,14 L16.9376135,14 L16.9376135,10 L6.33190791,10 C7.1544725,7.674 9.36324761,6 11.958409,6" id="Fill-1" fill="#4A4E63"></path>
        <path d="M26,12 C26,6.478 30.4712281,2 35.9871076,2 L35.9871076,6 C32.6823737,6 29.994843,8.691 29.994843,12 L29.994843,19.986 L29.994843,22 L26,22 L26,12 Z M49.9690581,2 C55.4839389,2 59.9561657,6.478 59.9561657,12 C59.9561657,17.522 55.4839389,22 49.9690581,22 C44.4541773,22 39.9819506,17.522 39.9819506,12 C39.9819506,6.478 44.4541773,2 49.9690581,2 Z M49.9690581,18 C53.273792,18 55.9613227,15.309 55.9613227,12 C55.9613227,8.691 53.273792,6 49.9690581,6 C46.6643242,6 43.9767936,8.691 43.9767936,12 C43.9767936,15.309 46.6643242,18 49.9690581,18 Z M73.9381162,18 C75.5899838,18 77.08805,17.327 78.1726499,16.24 L81,19.071 C79.1933322,20.881 76.6965554,22 73.9381162,22 C68.4232355,22 63.9510087,17.522 63.9510087,12 C63.9510087,6.478 68.4232355,2 73.9381162,2 C76.6965554,2 79.1933322,3.119 81,4.929 L78.1726499,7.76 C77.08805,6.673 75.5899838,6 73.9381162,6 C70.6333824,6 67.9458517,8.691 67.9458517,12 C67.9458517,15.309 70.6333824,18 73.9381162,18 Z" id="Combined-Shape" fill="#4A4E63"></path>
    </g>
</svg>